<svg width="348" height="347" viewBox="0 0 348 347" fill="none" xmlns="http://www.w3.org/2000/svg">
<g filter="url(#filter0_d_1_44)">
<path d="M221.984 169.183C221.984 215.655 216.251 257.592 207.066 287.795C202.467 302.918 197.062 314.902 191.22 323.027C185.318 331.236 179.464 334.865 174.036 334.865C168.608 334.865 162.754 331.236 156.852 323.027C151.01 314.902 145.605 302.918 141.006 287.795C131.821 257.592 126.089 215.655 126.089 169.183C126.089 122.71 131.821 80.7737 141.006 50.5708C145.605 35.4475 151.01 23.4638 156.852 15.3383C162.754 7.12979 168.608 3.5 174.036 3.5C179.464 3.5 185.318 7.12979 191.22 15.3383C197.062 23.4638 202.467 35.4475 207.066 50.5708C216.251 80.7737 221.984 122.71 221.984 169.183Z" stroke="white" stroke-width="7"/>
<path d="M199.677 127.842C239.923 151.078 273.375 177.011 294.939 200.067C305.737 211.611 313.412 222.284 317.528 231.406C321.686 240.621 321.903 247.506 319.188 252.207C316.474 256.908 310.404 260.163 300.344 261.169C290.386 262.166 277.306 260.855 261.909 257.277C231.16 250.129 191.976 234.126 151.729 210.889C111.483 187.653 78.0312 161.72 56.4669 138.665C45.6692 127.12 37.9938 116.447 33.8779 107.325C29.7199 98.1099 29.5034 91.2253 32.2175 86.5242C34.9317 81.8232 41.0022 78.5684 51.0618 77.5617C61.0195 76.5653 74.1005 77.8757 89.4971 81.4546C120.246 88.6021 159.43 104.606 199.677 127.842Z" stroke="white" stroke-width="7"/>
<path d="M148.267 127.842C188.513 104.606 227.697 88.6021 258.446 81.4546C273.843 77.8757 286.924 76.5653 296.881 77.5617C306.941 78.5684 313.012 81.8232 315.726 86.5242C318.44 91.2253 318.223 98.1099 314.065 107.325C309.949 116.447 302.274 127.12 291.476 138.665C269.912 161.72 236.46 187.653 196.214 210.889C155.968 234.126 116.783 250.129 86.0344 257.277C70.6377 260.855 57.5568 262.166 47.599 261.169C37.5394 260.163 31.4689 256.908 28.7548 252.207C26.0406 247.506 26.2571 240.621 30.4151 231.406C34.5311 222.284 42.2064 211.611 53.0042 200.067C74.5684 177.011 108.02 151.078 148.267 127.842Z" stroke="white" stroke-width="7"/>
<circle cx="172.057" cy="169.183" r="12.8618" fill="#D9D9D9"/>
</g>
<defs>
<filter id="filter0_d_1_44" x="19.458" y="0" width="309.027" height="346.365" filterUnits="userSpaceOnUse" color-interpolation-filters="sRGB">
<feFlood flood-opacity="0" result="BackgroundImageFix"/>
<feColorMatrix in="SourceAlpha" type="matrix" values="0 0 0 0 0 0 0 0 0 0 0 0 0 0 0 0 0 0 127 0" result="hardAlpha"/>
<feOffset dy="4"/>
<feGaussianBlur stdDeviation="2"/>
<feComposite in2="hardAlpha" operator="out"/>
<feColorMatrix type="matrix" values="0 0 0 0 0 0 0 0 0 0 0 0 0 0 0 0 0 0 0.25 0"/>
<feBlend mode="normal" in2="BackgroundImageFix" result="effect1_dropShadow_1_44"/>
<feBlend mode="normal" in="SourceGraphic" in2="effect1_dropShadow_1_44" result="shape"/>
</filter>
</defs>
</svg>
