<svg width="200" height="200" viewBox="0 0 200 200" fill="none" xmlns="http://www.w3.org/2000/svg">
<path d="M100 180C144.183 180 180 144.183 180 100C180 55.8172 144.183 20 100 20C55.8172 20 20 55.8172 20 100C20 144.183 55.8172 180 100 180Z" fill="#4DADFF" stroke="black" stroke-width="2"/>
<path d="M142.694 91.7212C137.562 91.8478 160.762 81.0196 161.694 76.7212C160.076 71.6306 168.694 57.2212 147.194 47.7212C144.736 41.7963 124.506 40.7633 117.694 39.2212C112.593 37.6368 100.198 48.6023 95.0042 52.1508C89.8106 55.6992 88.817 63.4194 88.7247 68.5522C87.7618 74.5615 87.7003 77.9833 90.1894 82.1973C92.6786 86.4113 96.0077 91.4597 96.8169 94.0049C98.4661 97.3846 100.085 102.475 104.346 103.225C108.576 105.686 114.548 106.394 118.779 108.855C123.009 111.315 122.948 114.737 122.016 119.036C121.053 125.045 116.669 131.139 114.866 136.314C112.223 140.654 110.42 145.829 112.038 150.92C113.657 156.01 118.727 159.306 122.149 159.221C127.281 159.095 131.603 156.423 135.086 152.916C137.729 148.576 140.372 144.235 141.304 139.937C140.526 135.681 158.694 116.168 158.694 116.168C158.694 116.168 162.262 107.472 163.194 103.173C164.126 98.8748 156.891 101.896 158.694 96.7212C159.657 90.7118 148.666 92.4289 142.694 91.7212Z" fill="#0B3B17"/>
<path d="M76.2516 105.878C71.956 105.824 65.3895 99.3018 66.0371 95.7313C64.5233 91.4184 77.0437 80.7743 75.5572 77.8931C73.3137 72.8555 62.0065 72.0635 56.2517 70.5608C51.9287 69.0759 45.4716 68.2802 41.2307 71.0904C36.9897 73.9006 36.3968 80.3345 36.4787 84.6296C35.8585 89.6318 35.9131 92.4952 38.1293 96.1012C40.3454 99.7071 43.2912 104.038 44.0481 106.194C45.5346 109.075 47.0485 113.388 50.6418 114.149C54.2625 116.34 59.2877 117.118 62.9084 119.31C66.5291 121.502 66.5838 124.366 65.9362 127.936C65.3159 132.938 61.8319 137.905 60.482 142.182C58.4025 145.735 57.0526 150.013 58.5665 154.325C60.0804 158.638 71.165 166.023 74.0288 166.058C78.3244 166.111 75.1287 159.541 77.9378 156.713C80.0173 153.16 82.0967 149.607 82.7443 146.037C81.9601 142.449 90.642 136.887 89.1554 134.006C86.9393 130.4 76.7162 130.217 77.3638 126.646C78.0114 123.076 80.0909 119.523 81.4408 115.246C82.0611 110.244 81.2768 106.656 76.2516 105.878Z" fill="#0B3B17"/>
</svg>
