<svg width="200" height="186" viewBox="0 0 200 186" fill="none" xmlns="http://www.w3.org/2000/svg">
<path d="M100 180C144.183 180 180 144.183 180 100C180 55.8172 144.183 20 100 20C55.8172 20 20 55.8172 20 100C20 144.183 55.8172 180 100 180Z" fill="#FF5733" stroke="#FF5733" stroke-width="3"/>
<path d="M69 74C73.4183 74 77 70.4183 77 66C77 61.5817 73.4183 58 69 58C64.5817 58 61 61.5817 61 66C61 70.4183 64.5817 74 69 74Z" fill="#FFA07A"/>
<path d="M126 68C131.523 68 136 63.5228 136 58C136 52.4772 131.523 48 126 48C120.477 48 116 52.4772 116 58C116 63.5228 120.477 68 126 68Z" fill="#FFA07A"/>
<path d="M138 146C144.627 146 150 140.627 150 134C150 127.373 144.627 122 138 122C131.373 122 126 127.373 126 134C126 140.627 131.373 146 138 146Z" fill="#FFA07A"/>
<path d="M45 136C48.866 136 52 132.866 52 129C52 125.134 48.866 122 45 122C41.134 122 38 125.134 38 129C38 132.866 41.134 136 45 136Z" fill="#FFA07A"/>
<path d="M61 180C65.9706 180 70 175.971 70 171C70 166.029 65.9706 162 61 162C56.0294 162 52 166.029 52 171C52 175.971 56.0294 180 61 180Z" fill="#FFA07A"/>
</svg>
