<svg width="200" height="200" viewBox="0 0 200 200" fill="none" xmlns="http://www.w3.org/2000/svg">
<path d="M100 180C144.183 180 180 144.183 180 100C180 55.8172 144.183 20 100 20C55.8172 20 20 55.8172 20 100C20 144.183 55.8172 180 100 180Z" fill="#F0F0F0" stroke="#D3D3D3" stroke-width="3"/>
<path d="M60 68C64.4183 68 68 64.4183 68 60C68 55.5817 64.4183 52 60 52C55.5817 52 52 55.5817 52 60C52 64.4183 55.5817 68 60 68Z" fill="#D3D3D3"/>
<path d="M140 50C145.523 50 150 45.5228 150 40C150 34.4772 145.523 30 140 30C134.477 30 130 34.4772 130 40C130 45.5228 134.477 50 140 50Z" fill="#D3D3D3"/>
<path d="M100 152C106.627 152 112 146.627 112 140C112 133.373 106.627 128 100 128C93.3726 128 88 133.373 88 140C88 146.627 93.3726 152 100 152Z" fill="#D3D3D3"/>
<path d="M160 107C163.866 107 167 103.866 167 100C167 96.134 163.866 93 160 93C156.134 93 153 96.134 153 100C153 103.866 156.134 107 160 107Z" fill="#D3D3D3"/>
<path d="M30 129C34.9706 129 39 124.971 39 120C39 115.029 34.9706 111 30 111C25.0294 111 21 115.029 21 120C21 124.971 25.0294 129 30 129Z" fill="#D3D3D3"/>
</svg>
