<svg width="200" height="200" viewBox="0 0 200 200" fill="none" xmlns="http://www.w3.org/2000/svg">
<path d="M100 180C144.183 180 180 144.183 180 100C180 55.8172 144.183 20 100 20C55.8172 20 20 55.8172 20 100C20 144.183 55.8172 180 100 180Z" fill="#FFD700" stroke="#FFD700" stroke-width="3"/>
<path d="M19 91L20 83H19.5L13 85L9.5 86L6.5 87.5L3.5 90L2 91.5L1 94V96L1.5 98L3.5 100.5L8 103.5L17 106.5L28 109L40.5 111L51.5 112L64.5 113L74 113.5L87.5 114H100H113.5L126 113.5L139.5 112.5L149.5 111.5L160 110.5L174.5 108.5L181.5 107L192 103.5L195 101.5L197.5 99L199 96.5V94.5L198.5 92.5L197 90L193.5 87.5L188.5 85.5L179.5 82.5L181 91.5L185 93L190 95L184.5 97.5L176 99.5L160 102L135.5 104.5L118 105.5L100 106L80 105.5L64.5 105L49 103.5L36.5 102L27 100.5L18.5 98.5L9.5 95L19 91Z" fill="#A9A9A9" stroke="#A9A9A9"/>
</svg>
